<svg id="export-svg" style="width:100%;cursor:crosshair" height="750" viewBox="0 0 1000 750" xmlns="http://www.w3.org/2000/svg" xmlns:xlink="http://www.w3.org/1999/xlink">
	<style>.polygonStyle { pointer-events: auto; fill: #508ef2; fill-opacity: 0.3; stroke: #FFFFFF; stroke-width: 1; }</style>
	<image style="visibility:visible;overflow:visible;width:100%" width="1000" height="750" xlink:href="adl-situatie1.jpg"></image>
	<g id="AD_46a4">
		<polygon id="polygon2" points=" 74.949951171875,475.82861328125 92.4873046875,478.5568974512105 92.11897277832031,441.04644775390625 74.75315856933594,442.3080749511719" class="polygonStyle"></polygon>
	</g>
	<g id="AD_0ec9">
		<polygon id="polygon3" points=" 108.44599914550781,439.9278869628906 108.60818961622479,480.7661670349849 92.4873046875,478.5568974512105 92.11897277832031,441.04644775390625" class="polygonStyle"></polygon>
	</g>
	<g id="AD_e118">
		<polygon id="polygon4" points=" 108.49847440906314,480.75113123073896 123.05734532937335,482.7463362607697 122.99117279052734,439.0551452636719 108.44599914550781,439.9278869628906" class="polygonStyle"></polygon>
	</g>
	<g id="AD_e560">
		<polygon id="polygon5" points=" 322.7677961356161,482.3976194941804 147.57556841667704,486.10641014967 122.99708971985245,482.73807859464563 122.99117279052734,439.0551452636719 147.4591537262579,437.6791156468955 322.52028424802086,439.3280383802074" class="polygonStyle"></polygon>
	</g>
	<g id="AD_e62c">
		<polygon id="polygon6" points=" 355.3133850097656,483.74432373046875 323.0713195800781,482.2750549316406 322.52028424802086,439.3280383802074 355.11529541015625,438.0368347167969 434.1015319824219,439.5306701660156 434.4822998046875,481.6058349609375" class="polygonStyle"></polygon>
	</g>
	<g id="AD_f0a2">
		<polygon id="polygon7" points=" 484.55364990234375,480.4635009765625 434.4822998046875,481.6058349609375 434.1015319824219,439.5306701660156 484.5948486328125,440.27178955078125" class="polygonStyle"></polygon>
	</g>
	<g id="AD_cda0">
		<polygon id="polygon8" points=" 484.5948486328125,440.27178955078125 553.0078735351562,441.1777648925781 553.4056396484375,479.22918701171875 484.55364990234375,480.4635009765625" class="polygonStyle"></polygon>
	</g>
	<g id="AD_2b14">
		<polygon id="polygon10" points=" 553.0078735351562,441.1777648925781 596.6932983398438,441.91050836911467 596.7822875976562,478.56390380859375 553.4056396484375,479.22918701171875" class="polygonStyle"></polygon>
	</g>
	<g id="AD_7543">
		<polygon id="polygon11" points=" 750.4591674804688,475.02294921875 782.2534790039062,474.4518127441406 782.1414794921875,445.95208740234375 750.4198608398438,445.5328369140625" class="polygonStyle"></polygon>
	</g>
	<g id="AD_b960">
		<polygon id="polygon12" points=" 782.2534790039062,474.4518127441406 809.0924072265625,473.70831298828125 809.037841796875,446.340576171875 782.1414794921875,445.95208740234375" class="polygonStyle"></polygon>
	</g>
	<g id="AD_56aa">
		<polygon id="polygon13" points=" 809.0924072265625,473.70831298828125 833.119140625,473.07269287109375 833.1434936523438,446.62005615234375 809.037841796875,446.340576171875" class="polygonStyle"></polygon>
	</g>
	<g id="AD_5d90">
		<polygon id="polygon14" points=" 860.1138305664062,446.8995361328125 860.3240356445312,472.3099365234375 833.119140625,473.07269287109375 833.1434936523438,446.62005615234375" class="polygonStyle"></polygon>
	</g>
	<g id="AD_a146">
		<polygon id="polygon15" points=" 887.2938232421875,447.3187561035156 887.43359375,471.4244079589844 860.3240356445312,472.3099365234375 860.1138305664062,446.8995361328125" class="polygonStyle"></polygon>
	</g>
	<g id="AD_5cb3">
		<polygon id="polygon17" points=" 74.75315856933594,442.3080749511719 74.99415588378906,406.73699951171875 92.51899719238281,402.3811340332031 92.62030029296875,441.0776062011719" class="polygonStyle"></polygon>
	</g>
	<g id="AD_8fab">
		<polygon id="polygon18" points=" 92.51899719238281,402.3811340332031 108.45539855957031,398.6970520019531 108.44599914550781,439.9278869628906 92.62030029296875,441.0776062011719" class="polygonStyle"></polygon>
	</g>
	<g id="AD_8cf2">
		<polygon id="polygon19" points=" 108.45539855957031,398.6970520019531 122.97234344482422,395.2406311035156 122.99117279052734,439.0551452636719 108.44599914550781,439.9278869628906" class="polygonStyle"></polygon>
	</g>
	<g id="AD_eeeb">
		<polygon id="polygon20" points=" 122.99117279052734,439.0551452636719 122.97234344482422,395.2406311035156 147.34152018905996,388.74479362293835 322.2669549128294,395.2461623273665 322.52028424802086,439.3280383802074 146.85403442382812,437.5691833496094" class="polygonStyle"></polygon>
	</g>
	<g id="AD_64e8">
		<polygon id="polygon21" points=" 434.1015319824219,439.5306701660156 356.24267578125,438.0581564158191 322.52028424802086,439.3280383802074 322.268645538358,395.54034833210414 356.24267578125,391.3498229980469 433.81024169921875,395.347900390625" class="polygonStyle"></polygon>
	</g>
	<g id="AD_3a6c">
		<polygon id="polygon22" points=" 433.81024169921875,395.347900390625 484.4512023925781,398.2387390136719 484.5948486328125,440.27178955078125 434.1015319824219,439.5306701660156" class="polygonStyle"></polygon>
	</g>
	<g id="AD_98ac">
		<polygon id="polygon23" points=" 553.0078735351562,441.1777648925781 484.5948486328125,440.27178955078125 484.4512023925781,398.2387390136719 552.6007690429688,401.50543212890625" class="polygonStyle"></polygon>
	</g>
	<g id="AD_650d">
		<polygon id="polygon24" points=" 552.6007690429688,401.50543212890625 596.6932983398438,403.339111328125 596.6932983398438,441.91050836911467 553.0078735351562,441.1777648925781" class="polygonStyle"></polygon>
	</g>
	<g id="AD_225e">
		<polygon id="polygon25" points=" 668.3184814453125,444.4825134277344 668.0836181640625,408.78350830078125 631.6800537109375,406.90460205078125 631.6800537109375,443.7779541015625" class="polygonStyle"></polygon>
	</g>
	<g id="AD_f260">
		<polygon id="polygon26" points=" 715.7837524414062,444.6910400390625 668.3184814453125,444.4825134277344 668.0836181640625,408.78350830078125 715.509521484375,411.10064697265625" class="polygonStyle"></polygon>
	</g>
	<g id="AD_1dff">
		<polygon id="polygon27" points=" 715.509521484375,411.10064697265625 749.9224853515625,412.4716796875 750.4198608398438,445.5328369140625 715.7837524414062,444.6910400390625" class="polygonStyle"></polygon>
	</g>
	<g id="AD_4798">
		<polygon id="polygon28" points=" 749.9224853515625,412.4716796875 781.6939697265625,414.1549377441406 782.1414794921875,445.95208740234375 750.4198608398438,445.5328369140625" class="polygonStyle"></polygon>
	</g>
	<g id="AD_b8a9">
		<polygon id="polygon29" points=" 781.6939697265625,414.1549377441406 782.1414794921875,445.95208740234375 809.037841796875,446.340576171875 808.968505859375,415.7010803222656" class="polygonStyle"></polygon>
	</g>
	<g id="AD_bbdf">
		<polygon id="polygon30" points=" 808.968505859375,415.7010803222656 809.037841796875,446.340576171875 833.1434936523438,446.62005615234375 833.3663330078125,416.790283203125" class="polygonStyle"></polygon>
	</g>
	<g id="AD_9404">
		<polygon id="polygon31" points=" 833.3663330078125,416.790283203125 833.1434936523438,446.62005615234375 860.1138305664062,446.8995361328125 860.1603393554688,418.0972900390625" class="polygonStyle"></polygon>
	</g>
	<g id="AD_a649">
		<polygon id="polygon32" points=" 860.1603393554688,418.0972900390625 887.8089833832196,419.6187074246856 887.2938232421875,447.3187561035156 860.1138305664062,446.8995361328125" class="polygonStyle"></polygon>
	</g>
	<g id="AD_e707">
		<polygon id="polygon33" points=" 68.46708679199219,388.5615234375 75.44877624511719,385.6524963378906 74.99415588378906,406.73699951171875 92.51899719238281,402.3811340332031 92.49003601074219,341.8836669921875 76.0889892578125,340.7704772949219" class="polygonStyle"></polygon>
	</g>
	<g id="AD_3157">
		<polygon id="polygon34" points=" 92.49003601074219,341.8836669921875 92.51899719238281,402.3811340332031 108.45539855957031,398.6970520019531 108.48238372802734,342.8512268066406" class="polygonStyle"></polygon>
	</g>
	<g id="AD_8e53">
		<polygon id="polygon35" points=" 108.45539855957031,398.6970520019531 122.97234344482422,395.2406311035156 121.8479232788086,343.7865905761719 108.48238372802734,342.8512268066406" class="polygonStyle"></polygon>
	</g>
	<g id="AD_d682">
		<polygon id="polygon36" points=" 121.8479232788086,343.7865905761719 126.34541459743139,315.10268034213766 322.0125732421875,334.8026123046875 322.2637937739332,394.69609206841517 147.34129283347676,388.6502160765414 122.97234344482422,395.2406311035156" class="polygonStyle"></polygon>
	</g>
	<g id="AD_ddd4">
		<polygon id="polygon37" points=" 433.81024169921875,395.347900390625 356.24267578125,391.3498229980469 323.03936767578125,395.252685546875 322.0125732421875,334.8026123046875 337.89396376404073,337.35870228236047 399.4524841308594,321.2882080078125 433.81024169921875,380.6058654785156" class="polygonStyle"></polygon>
	</g>
	<g id="AD_d620">
		<polygon id="polygon38" points=" 406.7892761230469,333.26690673828125 433.81024169921875,380.6058654785156 433.81024169921875,395.347900390625 484.4512023925781,398.2387390136719 483.8347391901053,341.8816677720006" class="polygonStyle"></polygon>
	</g>
	<g id="AD_ea4a">
		<polygon id="polygon39" points=" 483.9690473560542,354.9389002138088 484.4512023925781,398.2387390136719 552.6007690429688,401.50543212890625 552.795220673164,361.66342482062834" class="polygonStyle"></polygon>
	</g>
	<g id="AD_d3a2">
		<polygon id="polygon40" points=" 596.6932983398438,365.6632532536039 596.6932983398438,403.2925720214844 552.6007690429688,401.50543212890625 552.8015359254604,361.6640002427661" class="polygonStyle"></polygon>
	</g>
	<g id="AD_6cf3">
		<polygon id="polygon41" points=" 631.6800537109375,406.90460205078125 631.306640625,369.6661682128906 667.9078131504589,372.1520531355237 668.0836181640625,408.78350830078125" class="polygonStyle"></polygon>
	</g>
	<g id="AD_10b3">
		<polygon id="polygon42" points=" 668.0836181640625,408.78350830078125 715.509521484375,411.10064697265625 715.509521484375,376.4893425243191 667.77099609375,372.6178283691406" class="polygonStyle"></polygon>
	</g>
	<g id="AD_9d38">
		<polygon id="polygon43" points=" 715.509521484375,411.10064697265625 749.9224853515625,412.4716796875 749.9224853515625,379.62492291087017 715.5101928710938,376.4899597167969" class="polygonStyle"></polygon>
	</g>
	<g id="AD_05c7">
		<polygon id="polygon44" points=" 749.9224853515625,379.6249084472656 749.9224853515625,412.4716796875 781.6939697265625,414.1549377441406 781.6939697265625,382.5198215787775" class="polygonStyle"></polygon>
	</g>
	<g id="AD_6871">
		<polygon id="polygon45" points=" 781.6939697265625,414.1549377441406 808.968505859375,415.7010803222656 809.1025390625,385.0915222167969 781.6939697265625,382.51983642578125" class="polygonStyle"></polygon>
	</g>
	<g id="AD_25fa">
		<polygon id="polygon46" points=" 809.1025390625,385.0915222167969 808.968505859375,415.7010803222656 833.3663330078125,416.790283203125 833.2571411132812,387.5449523925781" class="polygonStyle"></polygon>
	</g>
	<g id="AD_7c9f">
		<polygon id="polygon47" points=" 833.3663330078125,416.790283203125 860.1603393554688,418.0972900390625 860.1417236328125,389.7668762207031 833.2571411132812,387.5449523925781" class="polygonStyle"></polygon>
	</g>
	<g id="AD_c8ba">
		<polygon id="polygon48" points=" 860.1417236328125,389.7668762207031 860.1603393554688,418.0972900390625 887.8089599609375,419.61871337890625 887.45654296875,401.16998291015625 884.0343017578125,391.7904357910156" class="polygonStyle"></polygon>
	</g>
	<g id="AD_6b8d">
		<polygon id="polygon49" points=" 433.3152160644531,315.0205383300781 411.5549835992379,334.4134091706231 483.74689365535266,341.87259118942023 483.96905517578125,354.93890380859375 596.6932983398438,365.6632532536039 596.2850952148438,318.6378479003906 528.888671875,309.6897277832031 519.3536987304688,293.7364807128906" class="polygonStyle"></polygon>
	</g>
	<g id="AD_c02a">
		<polygon id="polygon50" points=" 631.5115597013405,368.8357628299446 631.155517578125,324.79876708984375 667.2713423037713,329.4706665149373 700.7371215820312,313.5677490234375 716.12646484375,336.3096618652344 715.5101928710938,376.4899597167969" class="polygonStyle"></polygon>
	</g>
</svg>